HIERARCHY
ROOT Hips
{
	OFFSET -0.001795 -0.223333 0.028219
	CHANNELS 6 Xposition Yposition Zposition Zrotation Yrotation Xrotation 
	JOINT LeftUpLeg
	{
		OFFSET 0.069520 -0.091406 -0.006815
		CHANNELS 3 Zrotation Yrotation Xrotation
		JOINT LeftLeg
		{
			OFFSET 0.034277 -0.375199 -0.004496
			CHANNELS 3 Zrotation Yrotation Xrotation
			JOINT LeftFoot
			{
				OFFSET -0.013596 -0.397961 -0.043693
				CHANNELS 3 Zrotation Yrotation Xrotation
				JOINT LeftToe
				{
					OFFSET 0.026358 -0.055791 0.119288
					CHANNELS 3 Zrotation Yrotation Xrotation
					End Site
					{
						OFFSET 0.000000 0.000000 0.000000
					}
				}
			}
		}
	}
	JOINT RightUpLeg
	{
		OFFSET -0.067670 -0.090522 -0.004320
		CHANNELS 3 Zrotation Yrotation Xrotation
		JOINT RightLeg
		{
			OFFSET -0.038290 -0.382569 -0.008850
			CHANNELS 3 Zrotation Yrotation Xrotation
			JOINT RightFoot
			{
				OFFSET 0.015774 -0.398415 -0.042312
				CHANNELS 3 Zrotation Yrotation Xrotation
				JOINT RightToe
				{
					OFFSET -0.025372 -0.048144 0.123348
					CHANNELS 3 Zrotation Yrotation Xrotation
					End Site
					{
						OFFSET 0.000000 0.000000 0.000000
					}
				}
			}
		}
	}
	JOINT Spine
	{
		OFFSET -0.002533 0.108963 -0.026696
		CHANNELS 3 Zrotation Yrotation Xrotation
		JOINT Spine1
		{
			OFFSET 0.005487 0.135180 0.001092
			CHANNELS 3 Zrotation Yrotation Xrotation
			JOINT Spine2
			{
				OFFSET 0.001457 0.052922 0.025425
				CHANNELS 3 Zrotation Yrotation Xrotation
				JOINT Neck
				{
					OFFSET -0.002778 0.213870 -0.042857
					CHANNELS 3 Zrotation Yrotation Xrotation
					JOINT Head
					{
						OFFSET 0.005152 0.064970 0.051349
						CHANNELS 3 Zrotation Yrotation Xrotation
						End Site
						{
							OFFSET 0.000000 0.000000 0.000000
						}
					}
				}
				JOINT LeftShoulder
				{
					OFFSET 0.078845 0.121749 -0.034090
					CHANNELS 3 Zrotation Yrotation Xrotation
					JOINT LeftArm
					{
						OFFSET 0.090977 0.030469 -0.008868
						CHANNELS 3 Zrotation Yrotation Xrotation
						JOINT LeftForeArm
						{
							OFFSET 0.259612 -0.012772 -0.027456
							CHANNELS 3 Zrotation Yrotation Xrotation
							JOINT LeftHand
							{
								OFFSET 0.249234 0.008986 -0.001171
								CHANNELS 3 Zrotation Yrotation Xrotation
								End Site
								{
									OFFSET 0.000000 0.000000 0.000000
								}
							}
						}
					}
				}
				JOINT RightShoulder
				{
					OFFSET -0.081759 0.118833 -0.038615
					CHANNELS 3 Zrotation Yrotation Xrotation
					JOINT RightArm
					{
						OFFSET -0.096012 0.032551 -0.009143
						CHANNELS 3 Zrotation Yrotation Xrotation
						JOINT RightForeArm
						{
							OFFSET -0.253742 -0.013329 -0.021401
							CHANNELS 3 Zrotation Yrotation Xrotation
							JOINT RightHand
							{
								OFFSET -0.255298 0.007772 -0.005559
								CHANNELS 3 Zrotation Yrotation Xrotation
								End Site
								{
									OFFSET 0.000000 0.000000 0.000000
								}
							}
						}
					}
				}
			}
		}
	}
}
MOTION
Frames: 7
Frame Time: 0.050000
-1.012656 0.739439 1.248664 -38.713891 -77.798436 46.754831 -1.715224 18.202286 -51.944378 72.157282 -14.109730 51.088726 -21.532319 -49.081614 -9.184638 0.000000 0.000000 0.000000 -48.406325 13.756716 -59.904506 46.612458 0.406546 24.028848 -34.696506 -62.680952 23.146163 0.000000 0.000000 0.000000 19.692248 16.333443 69.482916 7.299921 -1.821620 -25.431453 -5.720014 -12.535019 21.504060 -11.738550 3.278705 -38.956128 0.000000 0.000000 0.000000 -22.553659 -19.574160 19.481376 -16.030756 -46.667962 0.951177 27.774554 -27.026633 -5.272134 0.000000 0.000000 0.000000 14.622644 38.424866 9.043194 29.587638 29.788867 4.161187 -15.811153 41.232731 -7.568109 0.000000 0.000000 0.000000 
-1.045509 0.738603 1.222259 -34.885992 -78.444238 43.953258 0.692252 18.882090 -49.879791 71.649156 -13.058291 50.496893 -24.307655 -47.605293 -4.096920 0.000000 0.000000 0.000000 -50.516952 13.757646 -62.666381 50.132256 -1.021810 25.646471 -34.820647 -63.245237 23.819986 0.000000 0.000000 0.000000 18.328682 16.865421 68.962616 8.667642 -2.031677 -25.838425 -4.785121 -10.726679 21.856276 -11.381457 3.371892 -39.447380 0.000000 0.000000 0.000000 -21.179908 -18.783009 17.861523 -18.699103 -44.930283 1.682561 29.041071 -29.279927 -5.877883 0.000000 0.000000 0.000000 14.371092 38.026950 9.553141 26.954225 28.803891 3.241005 -13.961608 39.892731 -6.091016 0.000000 0.000000 0.000000 
-1.085969 0.741318 1.191757 -23.625722 -78.591966 34.537973 3.048089 19.189812 -48.149612 68.428057 -12.185051 50.364157 -30.681813 -45.813520 6.641188 0.000000 0.000000 0.000000 -54.231057 12.905965 -63.048789 54.233356 -2.216860 24.386976 -38.434095 -63.859124 28.331662 0.000000 0.000000 0.000000 18.784897 16.084320 69.053755 9.420643 -2.077480 -26.526710 -5.615002 -10.232225 21.041392 -13.035173 4.404060 -39.817819 0.000000 0.000000 0.000000 -21.438845 -18.304090 17.220200 -18.433301 -41.322454 1.104728 30.061247 -32.610165 -6.906042 0.000000 0.000000 0.000000 13.057312 36.403217 9.247614 25.419710 28.104198 2.654788 -12.931362 41.075949 -5.803755 0.000000 0.000000 0.000000 
-1.132060 0.746099 1.158801 -19.302394 -78.202077 31.813500 3.955013 18.774776 -46.691871 67.876653 -11.046004 48.482797 -35.052450 -41.732578 16.794904 0.000000 0.000000 0.000000 -53.143763 12.967933 -64.817849 56.886628 -3.550349 26.185095 -49.414708 -67.796294 38.502921 0.000000 0.000000 0.000000 17.817952 15.241166 66.625458 9.033726 -1.905991 -27.365998 -5.058161 -8.478353 22.232719 -14.746219 5.218803 -41.234105 0.000000 0.000000 0.000000 -22.600829 -15.692838 16.299251 -19.291664 -38.310480 0.561120 28.566623 -36.878383 -7.361956 0.000000 0.000000 0.000000 13.543053 35.797117 9.007156 23.430908 27.535621 2.190758 -10.726116 37.677703 -4.246124 0.000000 0.000000 0.000000 
-1.179484 0.754805 1.126716 -15.824184 -78.924005 28.806642 5.707023 19.897927 -45.925245 69.633984 -11.717563 49.247503 -39.598201 -34.762760 31.778207 0.000000 0.000000 0.000000 -49.098777 13.718738 -65.079307 57.148288 -4.314933 30.577832 -49.668136 -69.122846 36.208603 0.000000 0.000000 0.000000 17.167696 14.804526 64.279963 6.940340 -1.815759 -25.510637 -3.507358 -7.010921 22.561851 -16.560773 6.123265 -40.139939 0.000000 0.000000 0.000000 -23.785101 -14.834085 16.444879 -18.708468 -39.160017 0.395951 24.699318 -33.969225 -5.712869 0.000000 0.000000 0.000000 12.757228 35.273505 8.562681 19.363982 27.721126 1.561290 -9.843994 36.720772 -3.861486 0.000000 0.000000 0.000000 
-1.224529 0.764805 1.099043 -5.544371 -77.216161 19.239072 1.701178 18.927615 -50.199006 74.329087 -14.816540 49.308790 -41.342547 -30.709966 39.706407 0.000000 0.000000 0.000000 -46.827958 13.583448 -64.224931 58.445552 -5.499428 33.455542 -55.662013 -69.617106 42.338138 0.000000 0.000000 0.000000 17.664143 13.916929 64.046248 7.900614 -2.122798 -23.900257 -5.345860 -7.358154 20.190277 -19.000942 7.443664 -40.033811 0.000000 0.000000 0.000000 -24.205413 -14.659214 16.211415 -19.122689 -36.308912 0.162007 24.056672 -31.960338 -5.179659 0.000000 0.000000 0.000000 11.172259 36.412182 9.104636 15.848214 28.015315 1.071842 -9.505933 34.511007 -3.402775 0.000000 0.000000 0.000000 
-1.269011 0.778255 1.077180 -2.715826 -77.058666 16.738482 -4.520528 18.724916 -57.853687 73.940785 -19.833091 52.853279 -39.932869 -37.982801 30.571726 0.000000 0.000000 0.000000 -41.000794 14.495940 -63.909141 57.673159 -6.617995 40.053442 -50.252077 -69.857292 34.047296 0.000000 0.000000 0.000000 16.620807 14.387190 64.152688 6.518192 -2.001423 -23.666883 -3.368805 -4.889470 20.868925 -18.141107 7.574757 -37.431277 0.000000 0.000000 0.000000 -27.730104 -15.493245 17.513226 -15.226018 -35.754639 -0.878152 20.540271 -31.270692 -4.463522 0.000000 0.000000 0.000000 9.948374 36.028545 9.529944 10.450871 27.776151 -0.023827 -10.843483 31.644427 -3.264157 0.000000 0.000000 0.000000 
